<svg width="40" height="40" viewBox="0 0 40 40" fill="none" xmlns="http://www.w3.org/2000/svg">
<g id="Euro hunter logo" clip-path="url(#clip0_368_6622)">
<path id="Vector" d="M40.0009 20C40.0009 31.0452 31.0461 40 20.0009 40C8.95566 40 -0.000915527 31.0452 -0.000915527 20C-0.000915527 8.95476 8.95384 0 19.9988 0C31.0437 0 39.9988 8.95476 39.9988 20" fill="#0618AC"/>
<path id="Vector_2" d="M32.3955 20C32.9319 20 33.3652 20.4536 33.3267 20.9879C32.8206 27.8722 27.0774 33.2992 20.0639 33.2992C13.0505 33.2992 7.30725 27.8722 6.80145 20.9879C6.76294 20.4536 7.19657 20 7.73268 20H32.3955Z" fill="white"/>
<path id="Vector_3" d="M16.3991 11.6C16.3991 11.8193 16.2669 12.0205 16.0627 12.1046C14.4559 12.7743 13.1734 14.0568 12.5036 15.6636C12.4195 15.8679 12.2183 16 11.9991 16C11.7798 16 11.5786 15.8679 11.4945 15.6636C10.8247 14.0568 9.54227 12.7743 7.93544 12.1046C7.73121 12.0205 7.59906 11.8193 7.59906 11.6C7.59906 11.3808 7.73121 11.1795 7.93544 11.0954C9.54227 10.4257 10.8247 9.14321 11.4945 7.53638C11.5786 7.33215 11.7798 7.2 11.9991 7.2C12.2183 7.2 12.4195 7.33215 12.5036 7.53638C13.1734 9.14321 14.4559 10.4257 16.0627 11.0954C16.2669 11.1795 16.3991 11.3808 16.3991 11.6Z" fill="#FDC637"/>
<path id="Vector_4" d="M31.9991 11.6C31.9991 11.8193 31.8669 12.0205 31.6627 12.1046C30.0559 12.7743 28.7734 14.0568 28.1037 15.6636C28.0196 15.8679 27.8183 16 27.5991 16C27.3798 16 27.1786 15.8679 27.0945 15.6636C26.4248 14.0568 25.1423 12.7743 23.5355 12.1046C23.3312 12.0205 23.1991 11.8193 23.1991 11.6C23.1991 11.3808 23.3312 11.1795 23.5355 11.0954C25.1423 10.4257 26.4248 9.14321 27.0945 7.53638C27.1786 7.33215 27.3798 7.2 27.5991 7.2C27.8183 7.2 28.0196 7.33215 28.1037 7.53638C28.7734 9.14321 30.0559 10.4257 31.6627 11.0954C31.8669 11.1795 31.9991 11.3808 31.9991 11.6Z" fill="#FDC637"/>
</g>
<defs>
<clipPath id="clip0_368_6622">
<rect width="40.0018" height="40" fill="white" transform="translate(-0.000915527)"/>
</clipPath>
</defs>
</svg>
