<svg width="176" height="24" viewBox="0 0 176 24" fill="none" xmlns="http://www.w3.org/2000/svg">
<g id="Text logo" clip-path="url(#clip0_622_72)">
<g id="Logo">
<g id="Group">
<path id="Vector" d="M16.411 21.9041C14.5616 23.3014 12.3425 23.9589 9.75342 23.9589C4.53425 23.9589 1 20.137 1 15.1644C1 10.1918 4.65753 6.24657 9.54795 6.24657C14.4384 6.24657 17.8082 9.9863 17.8082 14.7945V15.3699C17.8082 15.8219 17.6438 15.9863 17.2329 15.9863H4.49315C4.78082 18.9452 6.91781 21 10.0411 21C11.726 21 13.3699 20.4658 14.9315 19.4384C15.137 19.3151 15.3014 19.2329 15.4658 19.2329C15.6301 19.2329 15.7945 19.3562 15.9178 19.5616L16.6986 20.8356C16.6986 20.8356 16.8219 21.1644 16.8219 21.3288C16.8219 21.5753 16.6986 21.7397 16.4521 21.9041H16.411ZM4.61644 13.3973H14.2329C13.8219 10.8082 12.0137 9.08219 9.50685 9.08219C7 9.08219 5.27397 10.6438 4.61644 13.3973Z" fill="#1F3C8C"/>
<path id="Vector_2" d="M24.5068 6.65753C24.9178 6.65753 25.1233 6.82192 25.1233 7.27397V15.7397C25.1233 19.1507 26.5205 20.8767 29.2329 20.8767C31.9452 20.8767 33.4247 19.1918 33.4247 15.7397V7.27397C33.4247 6.82192 33.6301 6.65753 34.0411 6.65753H36.1781C36.589 6.65753 36.7534 6.82192 36.7534 7.27397V16.0274C36.7534 21.1644 34.0822 24 29.2329 24C24.3836 24 21.7534 21.2055 21.7534 16.0274V7.27397C21.7534 6.82192 21.9178 6.65753 22.3288 6.65753H24.4657H24.5068Z" fill="#1F3C8C"/>
<path id="Vector_3" d="M44.4382 6.65753C45.0136 6.65753 45.2191 6.90411 45.2191 7.47945V8.71233C46.2876 7.06849 47.9314 6.28767 50.1917 6.28767H50.5204C51.178 6.28767 51.3424 6.49315 51.3424 7.15068V8.83562C51.3424 9.49315 51.0958 9.69863 50.5204 9.69863H49.7396C46.7396 9.69863 45.2602 11.1781 45.2602 14.7534V22.9315C45.2602 23.3836 45.0958 23.5479 44.6848 23.5479H42.5478C42.0958 23.5479 41.9314 23.3836 41.9314 22.9315V7.47945C41.9314 6.82192 42.0547 6.65753 42.6711 6.65753H44.5204H44.4382Z" fill="#1F3C8C"/>
<path id="Vector_4" d="M77.6437 0C78.178 0 78.3835 0.164384 78.3835 0.69863V8.58904C79.5341 7.19178 81.2191 6.28767 83.315 6.28767C87.7122 6.28767 90.0136 9.12329 90.0136 14.2603V22.9726C90.0136 23.4247 89.8492 23.589 89.4382 23.589H87.3013C86.8903 23.589 86.6848 23.4247 86.6848 22.9726V14.5068C86.6848 11.2192 85.2054 9.36986 82.5341 9.36986C79.8629 9.36986 78.3835 11.2192 78.3835 14.5068V22.9726C78.3835 23.4247 78.2191 23.589 77.8081 23.589H75.6711C75.2191 23.589 75.0547 23.4247 75.0547 22.9726V0.69863C75.0547 0.164384 75.2602 0 75.7944 0H77.6848H77.6437Z" fill="#1F3C8C"/>
<path id="Vector_5" d="M97.6165 6.65753C98.0274 6.65753 98.2329 6.82192 98.2329 7.27397V15.7397C98.2329 19.1507 99.6302 20.8767 102.342 20.8767C105.055 20.8767 106.534 19.1918 106.534 15.7397V7.27397C106.534 6.82192 106.74 6.65753 107.151 6.65753H109.288C109.699 6.65753 109.863 6.82192 109.863 7.27397V16.0274C109.863 21.1644 107.192 24 102.342 24C97.4932 24 94.863 21.2055 94.863 16.0274V7.27397C94.863 6.82192 95.0274 6.65753 95.4384 6.65753H97.5754H97.6165Z" fill="#1F3C8C"/>
<path id="Vector_6" d="M117.466 6.65753C118.041 6.65753 118.37 6.9452 118.37 7.52055V8.58904C119.479 7.10959 121.246 6.28767 123.301 6.28767C127.699 6.28767 130 9.12329 130 14.2603V22.9726C130 23.4247 129.836 23.589 129.425 23.589H127.288C126.877 23.589 126.671 23.4247 126.671 22.9726V14.5068C126.671 11.2192 125.192 9.36986 122.52 9.36986C119.849 9.36986 118.37 11.2192 118.37 14.5068V22.9726C118.37 23.4247 118.205 23.589 117.794 23.589H115.657C115.205 23.589 115.041 23.4247 115.041 22.9726V7.52055C115.041 6.9452 115.329 6.65753 115.904 6.65753H117.507H117.466Z" fill="#1F3C8C"/>
<g id="Group_2">
<path id="Vector_7" d="M142.904 21.2877C142.904 20.9589 142.74 20.7945 142.452 20.7945C142.164 20.7945 141.548 20.9178 141.014 20.9178C139.616 20.9178 139 19.9315 139 17.2192V9.69863H142.082C142.657 9.69863 142.863 9.49315 142.863 8.91781V7.35616C142.863 6.82192 142.699 6.57534 142.082 6.57534H139V0.780822C139 0.205479 138.794 0 138.219 0H136.411C135.877 0 135.63 0.164384 135.63 0.780822V6.65753H132.589C132.014 6.65753 131.808 6.86301 131.808 7.43836V9C131.808 9.53425 131.972 9.78082 132.589 9.78082H135.63V17.7123C135.63 22.1507 137.315 24.0822 140.52 24.0822C141.301 24.0822 141.959 23.9589 142.575 23.7945C142.986 23.6712 143.109 23.5068 143.109 23.137V23.0137L142.904 21.3699V21.2877Z" fill="#1F3C8C"/>
<path id="Vector_8" d="M160.616 21.9041C158.767 23.3014 156.548 23.9589 153.959 23.9589C148.74 23.9589 145.205 20.137 145.205 15.1644C145.205 10.1918 148.822 6.20548 153.712 6.20548C158.603 6.20548 161.972 9.9452 161.972 14.7534V15.3288C161.972 15.7808 161.808 15.9452 161.397 15.9452H148.657C148.945 18.9041 151.082 20.9589 154.205 20.9589C155.89 20.9589 157.534 20.4247 159.096 19.3973C159.301 19.274 159.466 19.1918 159.63 19.1918C159.794 19.1918 159.959 19.3151 160.082 19.5205L160.863 20.7945C160.863 20.7945 160.986 21.1233 160.986 21.2877C160.986 21.5342 160.863 21.6986 160.616 21.863V21.9041ZM148.781 13.3973H158.438C158.027 10.8082 156.219 9.08219 153.712 9.08219C151.205 9.08219 149.479 10.6438 148.822 13.3973H148.781Z" fill="#1F3C8C"/>
<path id="Vector_9" d="M168.712 6.65753C169.288 6.65753 169.493 6.90411 169.493 7.47945V8.71233C170.561 7.06849 172.205 6.28767 174.466 6.28767H174.794C175.452 6.28767 175.616 6.49315 175.616 7.15068V8.83562C175.616 9.49315 175.37 9.69863 174.794 9.69863H174.014C171.014 9.69863 169.534 11.1781 169.534 14.7534V22.9315C169.534 23.3836 169.37 23.5479 168.959 23.5479H166.822C166.37 23.5479 166.205 23.3836 166.205 22.9315V7.47945C166.205 6.82192 166.329 6.65753 166.945 6.65753H168.794H168.712Z" fill="#1F3C8C"/>
</g>
</g>
<g id="Group_3">
<path id="Vector_10" d="M62.0273 23.959C66.9298 23.959 70.9041 19.9848 70.9041 15.0823C70.9041 10.1798 66.9298 6.20557 62.0273 6.20557C57.1249 6.20557 53.1506 10.1798 53.1506 15.0823C53.1506 19.9848 57.1249 23.959 62.0273 23.959Z" fill="#1F3C8C"/>
<path id="Vector_11" d="M67.9041 15.0823C68.1096 15.0823 68.274 15.2467 68.274 15.4521C68.0685 18.6987 65.3562 21.2878 62.0685 21.2878C58.7808 21.2878 56.0685 18.6987 55.863 15.4521C55.863 15.2467 56.0274 15.0823 56.2329 15.0823C58.0411 15.0823 66.137 15.0823 67.9452 15.0823H67.9041Z" fill="white"/>
<path id="Vector_12" d="M58.6987 9.45214L59.0685 10.6028C59.0685 10.6028 59.1918 10.7672 59.274 10.7672H60.4658C60.4658 10.7672 60.6302 10.8905 60.548 10.9727L59.5617 11.6713C59.5617 11.6713 59.4384 11.8357 59.4795 11.9179L59.8493 13.0686C59.8493 13.0686 59.7672 13.2741 59.685 13.1919L58.6987 12.4932C58.6987 12.4932 58.5343 12.4521 58.4521 12.4932L57.4658 13.1919C57.4658 13.1919 57.2603 13.1919 57.3014 13.0686L57.6713 11.9179C57.6713 11.9179 57.6713 11.7124 57.5891 11.6713L56.6028 10.9727C56.6028 10.9727 56.5617 10.7672 56.685 10.7672H57.8767C57.8767 10.7672 58.0411 10.685 58.0822 10.6028L58.4521 9.45214C58.4521 9.45214 58.6165 9.36995 58.6576 9.45214H58.6987Z" fill="#FFCC03"/>
<path id="Vector_13" d="M65.5617 9.45214L65.9316 10.6028C65.9316 10.6028 66.0548 10.7672 66.137 10.7672H67.3288C67.3288 10.7672 67.4932 10.8905 67.411 10.9727L66.4247 11.6713C66.4247 11.6713 66.3014 11.8357 66.3425 11.9179L66.7124 13.0686C66.7124 13.0686 66.6302 13.2741 66.548 13.1919L65.5617 12.4932C65.5617 12.4932 65.3973 12.4521 65.3151 12.4932L64.3288 13.1919C64.3288 13.1919 64.1233 13.1919 64.1644 13.0686L64.5343 11.9179C64.5343 11.9179 64.5343 11.7124 64.4521 11.6713L63.4658 10.9727C63.4658 10.9727 63.4247 10.7672 63.548 10.7672H64.7398C64.7398 10.7672 64.9042 10.685 64.9453 10.6028L65.3151 9.45214C65.3151 9.45214 65.4795 9.36995 65.5206 9.45214H65.5617Z" fill="#FFCC03"/>
</g>
</g>
</g>
<defs>
<clipPath id="clip0_622_72">
<rect width="176" height="24" fill="white"/>
</clipPath>
</defs>
</svg>
