<svg width="24" height="24" viewBox="0 0 24 24" fill="none" xmlns="http://www.w3.org/2000/svg">
<path d="M14.9935 20.1684V16.1704C14.9935 15.0709 14.0939 14.1714 12.9945 14.1714H10.9955C9.89603 14.1714 8.99648 15.0709 8.99648 16.1704V20.1684C8.99648 21.2678 8.09694 22.1674 6.99749 22.1674H4.99849C3.33933 22.1674 2 20.828 2 19.1689L2 9.19387C2 8.1444 2.54972 7.16489 3.45927 6.62517L10.4558 2.42728C11.4053 1.85756 12.5947 1.85756 13.5442 2.42728L20.5407 6.62517C21.4402 7.16489 22 8.1444 22 9.19387L21.9999 19.1689C21.9999 20.828 20.6606 22.1674 19.0015 22.1674H17.0025C15.903 22.1674 15.0035 21.2678 15.0035 20.1684H14.9935Z" stroke="#000" stroke-width="1.5" stroke-linecap="round" stroke-linejoin="round"/>
</svg>
