<svg width="48" height="48" viewBox="0 0 48 48" fill="none" xmlns="http://www.w3.org/2000/svg">
<path d="M24 25C25.6569 25 27 23.6569 27 22C27 20.3431 25.6569 19 24 19C22.3431 19 21 20.3431 21 22C21 23.6569 22.3431 25 24 25Z" stroke="#141619" stroke-width="1.5" stroke-linecap="round" stroke-linejoin="round"/>
<path d="M18 32C18.6267 30.7786 19.5079 29.7691 20.5587 29.0685C21.6095 28.368 22.7946 28 24 28C25.2054 28 26.3905 28.368 27.4413 29.0685C28.4921 29.7691 29.3733 30.7786 30 32" stroke="#141619" stroke-width="1.5" stroke-linecap="round" stroke-linejoin="round"/>
<path d="M24 34C29.5228 34 34 29.5228 34 24C34 18.4772 29.5228 14 24 14C18.4772 14 14 18.4772 14 24C14 29.5228 18.4772 34 24 34Z" stroke="#141619" stroke-width="1.5" stroke-linecap="round" stroke-linejoin="round"/>
</svg>
